PathFileType	4	(X/Y/Z)	C:\Users\WrightLab\Desktop\Jo\P5V212.trc
DataRate	CameraRate	NumFrames	NumMarkers	Units	OrigDataRate	OrigDataStartFrame	OrigNumFrames
100.00	100.00	       18	19	mm	100.00	294	       469
Frame#	Time	Headset_Front			Headset_Back			Headset_Left			Headset_Right			Left_Shoulder			Right_Shoulder			Sternum			C7			Left Elbow			Right Elbow			Left Wrist			Right Wrist			Left ASIS			Right ASIS			S2			Left Knee			Right Knee			Left Ankle			Right Ankle			
		X1	Y1	Z1	X2	Y2	Z2	X3	Y3	Z3	X4	Y4	Z4	X5	Y5	Z5	X6	Y6	Z6	X7	Y7	Z7	X8	Y8	Z8	X9	Y9	Z9	X10	Y10	Z10	X11	Y11	Z11	X12	Y12	Z12	X13	Y13	Z13	X14	Y14	Z14	X15	Y15	Z15	X16	Y16	Z16	X17	Y17	Z17	X18	Y18	Z18	X19	Y19	Z19	

294	2.930										-516.06024	1562.35828	-164.10599	-164.67310	1509.40393	-350.21619	-554.65967	1441.84033	-271.37451	-346.97119	1307.06909	-245.63408	-400.91299	1515.56250	-439.06726	-62.23989	1221.21643	-367.27786	-685.31799	1210.98584	-170.21689	-72.03960	977.61627	-288.12811	-708.19000	1110.00598	58.28048	-190.18120	930.71387	-250.26018	-473.44391	928.04279	-214.34317	-312.76755	967.99713	-499.14270	-165.68152	498.50333	-242.51770	-507.48962	480.78308	-239.18901	-240.82887	85.46590	-260.03036	-508.70963	170.80179	-514.67957	
295	2.940										-515.74927	1563.08398	-160.24484	-164.00330	1510.55896	-345.70490	-554.27649	1443.65405	-268.77002	-347.08234	1307.57251	-242.36188	-399.38907	1517.06824	-434.78128	-61.80151	1223.60400	-360.78186	-685.49628	1213.26025	-168.40955	-71.40847	980.00238	-280.31989	-707.97943	1108.99988	61.00894	-189.72081	931.72253	-245.66092	-473.82037	928.81677	-210.98122	-310.59271	969.48938	-494.86813	-163.55124	498.67035	-239.72255	-507.68958	483.57065	-230.13345	-240.86882	85.66467	-259.50601	-508.20282	170.59741	-504.28461	
296	2.950										-515.92914	1563.63928	-157.32896	-162.88072	1511.40784	-340.56415	-553.23553	1444.44568	-265.09442	-346.95441	1308.76990	-238.26566	-398.26904	1518.07251	-431.19254	-59.19786	1224.92334	-356.12537	-684.27960	1212.70959	-165.00543	-70.41341	982.54425	-272.94516	-708.30493	1108.83179	63.27431	-189.91919	932.82196	-241.75816	-474.73032	929.61194	-207.31845	-308.40048	970.56030	-490.57925	-161.06691	498.12485	-236.53310	-507.45969	486.04709	-222.49951	-240.87819	85.68710	-259.48901	-507.92926	169.68408	-493.40466	
297	2.960										-515.40497	1564.12146	-153.36909	-162.39342	1512.96594	-335.92236	-552.23358	1445.26648	-261.91382	-345.79114	1309.55859	-233.54822	-396.85858	1519.20996	-426.88007	-58.58211	1225.13037	-347.65353	-684.21490	1213.48218	-162.00250	-70.12987	984.01459	-264.96301	-709.43689	1108.35828	64.59129	-188.55763	934.10181	-237.63889	-474.75995	931.23804	-202.94617	-307.27243	972.54956	-487.80472	-158.32744	498.02243	-233.58058	-508.69470	489.01010	-213.28032	-240.89986	85.70895	-259.46957	-507.29877	168.34715	-481.83994	
298	2.970										-515.55841	1565.57910	-150.37648	-161.44884	1514.40784	-330.77435	-551.57672	1445.62341	-258.72726	-345.02179	1310.64832	-228.93716	-395.89044	1520.44006	-423.67126	-57.93570	1227.16797	-343.13760	-683.72046	1214.33984	-160.31702	-70.26534	985.97107	-257.28430	-709.84839	1108.37073	65.95213	-188.86005	934.49713	-233.73589	-474.91928	931.74567	-199.24246	-306.63937	973.26257	-484.53430	-156.01669	498.57617	-230.21016	-509.24606	492.34500	-206.07471	-241.08102	85.61423	-259.38138	-506.34119	165.76756	-470.18585	
299	2.980										-515.36578	1566.01440	-147.12279	-160.93640	1515.62659	-326.21106	-551.34155	1446.83887	-256.19162	-345.00195	1311.82422	-225.52490	-395.01968	1521.58704	-420.57755	-57.87743	1228.79858	-337.73917	-683.61725	1214.79224	-157.57172	-70.21401	987.64203	-249.14384	-710.24390	1108.01123	67.79130	-188.07033	935.78076	-229.26906	-474.48462	932.60144	-194.58716	-305.94434	974.56030	-481.54910	-154.35793	499.24252	-226.57561	-510.13763	495.40814	-200.24742	-241.05099	85.64329	-259.36908	-506.42303	163.49208	-458.07327	
300	2.990										-515.81091	1566.98999	-144.46249	-159.72906	1516.82385	-321.50714	-550.32684	1447.64758	-252.83942	-344.80258	1312.66260	-222.84174	-393.56189	1522.88623	-416.99817	-56.66050	1229.47302	-332.46393	-683.50641	1215.32397	-155.26334	-70.07139	990.53497	-242.13092	-710.63501	1107.67627	70.12567	-189.21172	936.03992	-226.94545	-474.77975	933.83087	-190.99678	-306.34277	975.55280	-478.88516	-153.05228	499.58652	-223.02341	-511.02188	500.24774	-194.38885	-241.21173	85.51150	-259.08578	-506.10327	159.73193	-445.45572	
301	3.000										-515.86548	1567.94116	-141.04045	-159.11862	1518.09534	-317.32562	-549.52484	1448.29480	-250.23839	-343.63910	1313.48596	-218.17764	-392.36511	1523.35706	-413.23279	-57.49538	1228.83386	-333.76859	-683.57043	1216.03882	-153.23413	-69.32135	992.75000	-234.12129	-710.60553	1107.54883	72.31144	-188.15462	937.59613	-222.46298	-474.21219	934.65033	-187.18585	-305.81952	976.84210	-476.43152	-152.40399	500.75436	-219.13362	-511.69177	503.70737	-189.59015	-241.05345	85.64746	-259.36575	-505.82333	155.95851	-433.07190	
302	3.010										-515.65765	1568.06030	-138.01979	-158.05054	1519.21387	-312.86707	-549.75830	1448.83447	-247.88351	-342.94687	1314.63953	-214.92468	-390.99658	1524.42505	-409.87723	-56.09626	1232.08484	-319.27417	-683.19208	1216.42200	-151.29735	-70.43903	993.94397	-227.45296	-711.05359	1107.39563	73.40186	-186.56053	938.72839	-217.99597	-473.81265	935.55426	-182.80533	-305.77081	978.07141	-474.27216	-152.26106	501.30280	-215.13939	-512.63470	507.48288	-185.42041	-241.06813	85.64986	-259.36081	-505.72916	150.65800	-419.04269	
303	3.020										-515.71039	1569.08105	-135.15810	-157.67484	1519.76880	-308.17337	-549.54443	1449.60254	-245.40677	-342.08685	1315.08777	-211.81480	-389.93692	1524.91565	-406.22723	-54.26649	1232.88770	-315.62869	-682.78851	1216.89807	-149.10942	-71.18681	995.73267	-219.97955	-711.89111	1107.85303	75.11354	-185.44794	940.88239	-214.12898	-474.14688	936.09613	-180.35596	-306.27695	979.54651	-472.40933	-151.35774	501.93628	-211.18990	-511.53412	509.92407	-182.00186	-241.10275	85.61247	-259.37756	-505.84985	146.07115	-404.85452	
304	3.030										-515.55249	1569.23608	-132.04135	-157.11139	1521.64502	-304.50238	-548.98230	1449.27283	-242.67119	-341.59854	1315.80664	-209.47154	-388.84030	1525.78931	-402.38010	-53.69824	1234.46802	-311.02231	-682.45917	1217.32092	-147.23332	-71.33624	997.97046	-212.71461	-712.45416	1108.14575	76.02945	-185.10754	940.45605	-212.23997	-473.15070	936.95349	-176.87711	-306.08347	980.15063	-468.96088	-151.35025	502.16995	-207.91898	-510.91104	512.33844	-178.46091	-241.18489	85.54322	-259.40448	-505.39648	140.58194	-390.79623	
305	3.040										-515.40277	1569.71045	-128.93704	-156.78784	1522.07764	-300.20364	-548.28290	1449.73181	-239.76753	-341.14963	1315.81836	-206.19699	-388.22784	1526.59094	-400.02548	-53.52703	1234.08875	-305.51450	-682.67432	1218.58423	-144.90094	-71.34047	1000.51422	-205.48170	-713.41345	1108.16443	78.32587	-183.80376	941.05188	-208.33223	-473.12405	937.67572	-173.54745	-305.95877	981.43536	-467.70807	-150.78705	502.16010	-204.56012	-509.88547	514.02313	-174.39006	-241.25226	85.49113	-259.42343	-505.54468	135.31480	-376.47583	
306	3.050										-516.53998	1570.67322	-127.17787	-156.45993	1522.67944	-297.00861	-548.43634	1450.47864	-237.54124	-340.63742	1316.73071	-201.85242	-387.53830	1527.14319	-396.74911	-52.98927	1234.84729	-300.59952	-681.97107	1217.95398	-143.78935	-72.32346	1002.33563	-199.84470	-713.85706	1108.44531	79.46647	-182.19073	941.51984	-205.68529	-472.74054	937.90845	-172.31770	-305.80768	982.66632	-465.19028	-150.90230	501.78497	-201.13651	-507.21545	514.54272	-172.70625	-241.43259	85.49843	-259.49387	-505.38071	129.52217	-361.10202	
307	3.060										-516.44641	1571.03308	-124.62000	-156.01031	1523.53149	-292.63928	-548.35791	1451.00183	-235.19081	-340.34186	1317.06641	-199.50826	-386.34003	1527.71838	-393.85941	-51.53400	1236.60828	-296.04785	-682.06616	1217.98645	-141.99673	-73.50925	1003.65894	-194.12775	-714.98718	1108.18567	81.98902	-181.67838	941.98395	-201.99654	-472.31680	939.12018	-169.31628	-305.57059	983.50507	-463.53326	-150.56435	501.51038	-199.18562	-506.32578	515.34833	-170.45219	-241.48528	85.47221	-259.89630	-504.89999	124.39124	-346.55972	
308	3.070										-516.33923	1571.33459	-121.85809	-155.84071	1523.88550	-289.24319	-547.78070	1450.56177	-231.66953	-339.97791	1317.54504	-196.50783	-385.60156	1528.06787	-391.18573	-51.79893	1237.49695	-293.05997	-682.29443	1218.15479	-140.38445	-74.99231	1005.03754	-187.01526	-716.13684	1108.78235	83.03855	-180.63705	942.81531	-199.06152	-472.05823	938.92450	-167.10779	-305.72037	984.14587	-461.22598	-149.65073	501.50946	-196.43469	-505.40948	514.99628	-169.09378	-241.49565	85.43964	-259.91547	-504.92969	119.41669	-332.13605	
309	3.080										-518.79810	1571.24902	-120.45978	-155.40729	1523.75940	-285.22086	-547.18060	1451.01685	-229.55296	-339.85919	1318.24023	-193.99547	-385.37561	1528.99707	-388.29831	-52.12259	1236.94116	-286.63748	-683.04773	1218.36755	-138.47583	-75.43630	1007.41571	-181.31705	-717.52826	1109.43372	84.81791	-180.28922	942.67316	-195.61732	-471.34033	939.38153	-165.31430	-305.01941	985.31201	-459.04465	-148.92143	502.27304	-195.09752	-505.08954	515.12628	-168.73424	-241.53667	85.40659	-259.92789	-505.27341	114.16615	-316.87930	
310	3.090										-516.35876	1571.36768	-116.06536	-154.48106	1524.97534	-282.30307	-546.91589	1451.03284	-227.49585	-340.04959	1318.75378	-189.59808	-384.46582	1529.14832	-385.30844	-51.01815	1237.25073	-283.27869	-683.49487	1218.70129	-137.06799	-79.01738	1009.69269	-175.93410	-718.05334	1109.80371	86.47562	-178.76144	943.61438	-192.18176	-470.80328	939.38989	-164.71295	-305.57968	985.89117	-456.25406	-148.23648	502.31760	-194.22545	-503.99850	514.51691	-167.89940	-241.54646	85.39297	-259.93466	-504.96878	110.08774	-302.46484	
311	3.100										-516.68903	1571.81018	-114.31732	-155.23564	1524.77612	-278.99579	-546.71539	1451.36548	-225.17813	-340.08969	1318.77930	-186.49615	-383.82184	1529.68811	-382.48615	-50.50060	1238.59021	-278.94608	-683.78613	1219.16272	-135.94438	-77.76477	1011.78516	-170.76608	-719.67444	1110.63147	87.69229	-177.29024	943.88232	-189.16187	-469.69632	939.53198	-162.97749	-305.13641	986.01935	-454.04749	-146.60425	502.74646	-192.23721	-503.63837	513.83868	-167.80928	-241.53712	85.38428	-259.94254	-504.43091	106.29427	-286.97141	
